<svg width="86" height="86" viewBox="0 0 86 86" fill="none" xmlns="http://www.w3.org/2000/svg">
<path fill-rule="evenodd" clip-rule="evenodd" d="M43 86C66.7482 86 86 66.7482 86 43C86 19.2518 66.7482 0 43 0C19.2518 0 0 19.2518 0 43C0 66.7482 19.2518 86 43 86Z" fill="#FBB886"/>
<path fill-rule="evenodd" clip-rule="evenodd" d="M65.2646 22H21.7354C19.6756 22 18 23.702 18 25.7941V55.1353C18 57.2274 19.6756 58.9294 21.7354 58.9294H38.644L42.9023 64.6965C43.0435 64.8876 43.2648 65 43.5 65C43.7352 65 43.9565 64.8876 44.0977 64.6965L48.356 58.9294H65.2646C67.3244 58.9294 69 57.2274 69 55.1353V25.7941C69 23.702 67.3244 22 65.2646 22ZM67.5059 55.1353C67.5059 56.3906 66.5005 57.4118 65.2646 57.4118H47.9824C47.7472 57.4118 47.5259 57.5242 47.3848 57.7153L43.5 62.9765L39.6152 57.7153C39.4741 57.5242 39.2528 57.4118 39.0176 57.4118H21.7354C20.4995 57.4118 19.4941 56.3906 19.4941 55.1353V25.7941C19.4941 24.5388 20.4995 23.5176 21.7354 23.5176H65.2646C66.5005 23.5176 67.5059 24.5388 67.5059 25.7941V55.1353ZM35.2822 34.9C35.2822 30.2974 38.9687 26.5529 43.5 26.5529C48.0313 26.5529 51.7178 30.2974 51.7178 34.9V37.9353C51.7178 42.5379 48.0313 46.2824 43.5 46.2824C38.9687 46.2824 35.2822 42.5379 35.2822 37.9353V34.9ZM43.5 44.7647C47.2075 44.7647 50.2236 41.7011 50.2236 37.9353V34.9C50.2236 31.1342 47.2075 28.0706 43.5 28.0706C39.7925 28.0706 36.7764 31.1342 36.7764 34.9V37.9353C36.7764 41.7011 39.7925 44.7647 43.5 44.7647ZM44.788 37.7187C44.9058 37.317 45.3217 37.088 45.7173 37.208C46.1128 37.3277 46.3378 37.7502 46.22 38.1519C45.8643 39.3647 44.7458 40.2118 43.5 40.2118C42.2542 40.2118 41.1357 39.3647 40.78 38.1519C40.6622 37.7502 40.8872 37.3277 41.2827 37.208C41.6786 37.0886 42.0942 37.3171 42.212 37.7187C42.3804 38.2931 42.91 38.6941 43.5 38.6941C44.09 38.6941 44.6197 38.2931 44.788 37.7187ZM29.8037 52.6059C29.8037 49.956 31.9263 47.8 34.5352 47.8H52.4648C55.0737 47.8 57.1963 49.956 57.1963 52.6059V53.6176C57.1963 54.0367 56.8618 54.3765 56.4492 54.3765H37.5234C37.1109 54.3765 36.7764 54.0367 36.7764 53.6176C36.7764 53.1986 37.1109 52.8588 37.5234 52.8588H55.7021V52.6059C55.7021 50.7928 54.2498 49.3176 52.4648 49.3176H34.5352C32.7502 49.3176 31.2979 50.7928 31.2979 52.6059V52.8588H34.5352C34.9477 52.8588 35.2822 53.1986 35.2822 53.6176C35.2822 54.0367 34.9477 54.3765 34.5352 54.3765H30.5508C30.1382 54.3765 29.8037 54.0367 29.8037 53.6176V52.6059Z" fill="white"/>
</svg>
