<svg width="86" height="86" viewBox="0 0 86 86" fill="none" xmlns="http://www.w3.org/2000/svg">
<path fill-rule="evenodd" clip-rule="evenodd" d="M43 86C66.7482 86 86 66.7482 86 43C86 19.2518 66.7482 0 43 0C19.2518 0 0 19.2518 0 43C0 66.7482 19.2518 86 43 86Z" fill="#8E65FF"/>
<path fill-rule="evenodd" clip-rule="evenodd" d="M62.4134 26.9293C59.9912 24.3955 56.7513 23.0001 53.2902 23.0001C49.8824 23.0001 46.6783 24.3577 44.268 26.8231L43.024 28.0964L41.7788 26.8228C39.3687 24.3576 36.1652 23 32.7584 23C29.3506 23 26.1466 24.3576 23.7366 26.8228C21.327 29.2873 20 32.5643 20 36.05C20 39.5357 21.327 42.8126 23.7366 45.2771L39.6822 61.5869C40.6034 62.5289 41.8131 63 43.023 63C44.2327 62.9999 45.4426 62.5289 46.3635 61.587L62.2064 45.3836C67.1824 40.2938 67.2753 32.0154 62.4134 26.9293ZM60.536 43.6751L44.6931 59.8787C43.7721 60.8206 42.2735 60.8206 41.3526 59.8786L25.4069 43.5685C23.4434 41.5603 22.3622 38.8902 22.3622 36.0499C22.3622 33.2095 23.4434 30.5394 25.4069 28.5311C27.3707 26.5224 29.9816 25.4161 32.7584 25.4161C35.5343 25.4161 38.1446 26.5224 40.1085 28.5311L41.3542 29.8054L39.4466 31.758C38.9855 32.23 38.9859 32.9949 39.4472 33.4665C39.6778 33.7022 39.9799 33.82 40.282 33.82C40.5845 33.82 40.8869 33.7018 41.1175 33.4658L45.9383 28.531C47.9022 26.5223 50.513 25.416 53.2899 25.416C56.11 25.416 58.7501 26.5533 60.7242 28.6183C64.6859 32.7626 64.6014 39.5169 60.536 43.6751ZM59.3874 29.8124C60.8735 31.3327 61.7634 33.3531 61.8932 35.5016C61.9335 36.1676 61.4385 36.7407 60.7874 36.7816C60.7626 36.7833 60.7379 36.784 60.7135 36.784C60.0944 36.784 59.5745 36.291 59.5357 35.6504C59.4415 34.0905 58.7957 32.6239 57.7172 31.5208C56.9522 30.7383 56.0052 30.1703 54.9786 29.8781C54.3501 29.6993 53.9824 29.0332 54.1572 28.3905C54.3321 27.7477 54.9832 27.3716 55.6116 27.5504C57.0295 27.9541 58.3352 28.7361 59.3874 29.8124Z" fill="white"/>
</svg>
