<svg width="86" height="86" viewBox="0 0 86 86" fill="none" xmlns="http://www.w3.org/2000/svg">
<path fill-rule="evenodd" clip-rule="evenodd" d="M43 86C66.7482 86 86 66.7482 86 43C86 19.2518 66.7482 0 43 0C19.2518 0 0 19.2518 0 43C0 66.7482 19.2518 86 43 86Z" fill="#22BC8F"/>
<path fill-rule="evenodd" clip-rule="evenodd" d="M43 70C57.9117 70 70 57.9117 70 43C70 28.0883 57.9117 16 43 16C28.0883 16 16 28.0883 16 43C16 57.9117 28.0883 70 43 70ZM43 68C56.8071 68 68 56.8071 68 43C68 29.1929 56.8071 18 43 18C29.1929 18 18 29.1929 18 43C18 56.8071 29.1929 68 43 68ZM33.7314 50.2471H51.6611C54.27 50.2471 56.3926 52.403 56.3926 55.053V56.0647C56.3926 56.4838 56.0581 56.8235 55.6455 56.8235H36.7197C36.3071 56.8235 35.9727 56.4838 35.9727 56.0647C35.9727 55.6456 36.3071 55.3059 36.7197 55.3059H54.8984V55.053C54.8984 53.2399 53.4461 51.7647 51.6611 51.7647H33.7314C31.9464 51.7647 30.4941 53.2399 30.4941 55.053V55.3059H33.7314C34.144 55.3059 34.4785 55.6456 34.4785 56.0647C34.4785 56.4838 34.144 56.8235 33.7314 56.8235H29.7471C29.3345 56.8235 29 56.4838 29 56.0647V55.053C29 52.403 31.1226 50.2471 33.7314 50.2471ZM44.9686 39.6552C44.573 39.5352 44.1571 39.7642 44.0394 40.1658C43.871 40.7402 43.3413 41.1413 42.7513 41.1413C42.1613 41.1413 41.6317 40.7402 41.4633 40.1658C41.3455 39.7643 40.9299 39.5358 40.534 39.6552C40.1385 39.7749 39.9135 40.1974 40.0313 40.5991C40.387 41.8119 41.5055 42.6589 42.7513 42.6589C43.9971 42.6589 45.1156 41.8119 45.4713 40.5991C45.5891 40.1974 45.3641 39.7749 44.9686 39.6552ZM43.2178 29C38.6864 29 35 32.7444 35 37.3471V40.3824C35 44.985 38.6864 48.7294 43.2178 48.7294C47.7491 48.7294 51.4355 44.985 51.4355 40.3824V37.3471C51.4355 32.7444 47.7491 29 43.2178 29ZM49.9414 40.3824C49.9414 44.1481 46.9252 47.2118 43.2178 47.2118C39.5103 47.2118 36.4941 44.1481 36.4941 40.3824V37.3471C36.4941 33.5813 39.5103 30.5176 43.2178 30.5176C46.9252 30.5176 49.9414 33.5813 49.9414 37.3471V40.3824Z" fill="white"/>
</svg>
