<svg width="86" height="86" viewBox="0 0 86 86" fill="none" xmlns="http://www.w3.org/2000/svg">
<path fill-rule="evenodd" clip-rule="evenodd" d="M43 86C66.7482 86 86 66.7482 86 43C86 19.2518 66.7482 0 43 0C19.2518 0 0 19.2518 0 43C0 66.7482 19.2518 86 43 86Z" fill="#F4697F"/>
<path fill-rule="evenodd" clip-rule="evenodd" d="M45.445 49.0091C41.1596 53.2945 41.1596 60.2801 45.445 64.5655C49.7303 68.8508 56.716 68.8508 61.0013 64.5655C65.2867 60.2801 65.2867 53.2945 61.0013 49.0091C59.737 47.7448 58.2376 46.8535 56.6418 46.3352L57.4846 45.4924L56.2878 44.2957L54.691 45.8925C51.9558 45.5278 49.1083 46.1874 46.7796 47.8713L46.6812 47.7729L45.4844 48.9697L45.4845 48.9698L45.445 49.0091ZM53.0973 47.4862C51.3107 47.5102 49.5298 48.0435 47.9945 49.0863L49.7459 50.8376L53.0973 47.4862ZM55.2666 47.7105C56.9312 48.0821 58.5125 48.9139 59.8045 50.2059C63.4319 53.8333 63.4319 59.7413 59.8045 63.3687C56.1772 66.9961 50.2691 66.9961 46.6417 63.3687C43.0144 59.7413 43.0144 53.8333 46.6417 50.2059L46.6813 50.1666L48.5491 52.0344L48.5366 52.0469L49.7334 53.2437L49.7459 53.2312L49.7532 53.2385L50.95 52.0417L50.9427 52.0344L55.2666 47.7105Z" fill="white"/>
<path d="M42.5002 60L27.1325 44.6189C25.1142 42.5583 24 39.8356 24 36.9548C24 30.9204 28.9087 26 34.9529 26C37.6647 26 40.3768 27.1775 42.5002 29.2488C44.6235 27.1775 47.3353 26 50.0471 26C56.0913 26 61 30.9204 61 36.9548C61 38.5318 60.6742 40.0564 60.0121 41.4862L58.4877 40.7922C59.0343 39.5833 59.3183 38.29 59.3183 36.9548C59.3183 31.8453 55.1662 27.6823 50.0471 27.6823C47.5352 27.6823 45.0124 28.9017 43.1204 31.0254L42.4897 31.7298L41.859 31.0254C39.9669 28.9017 37.4442 27.6823 34.932 27.6823C29.8338 27.6823 25.6817 31.8453 25.6817 36.9548C25.6817 39.3939 26.6277 41.6962 28.3307 43.4309L42.5002 57.6133L44.8966 55.2059L46.0844 56.3939L42.5002 60Z" fill="white"/>
</svg>
