<svg width="86" height="86" viewBox="0 0 86 86" fill="none" xmlns="http://www.w3.org/2000/svg">
<path fill-rule="evenodd" clip-rule="evenodd" d="M43 86C66.7482 86 86 66.7482 86 43C86 19.2518 66.7482 0 43 0C19.2518 0 0 19.2518 0 43C0 66.7482 19.2518 86 43 86Z" fill="#00909E"/>
<path fill-rule="evenodd" clip-rule="evenodd" d="M64.9061 53.6287C62.7115 49.9451 59.8109 46.8049 56.4883 44.5069L61.6275 37.741C62.1138 37.1007 62.1956 36.2542 61.841 35.5317C61.4864 34.8091 60.7688 34.3602 59.9683 34.3602H56.9811L59.3921 30.4873C59.5855 30.1767 59.4922 29.7672 59.1837 29.5725C58.8754 29.378 58.4686 29.4718 58.2751 29.7824L55.2315 34.6714C55.1041 34.876 55.0972 35.134 55.2132 35.3452C55.3293 35.5564 55.5502 35.6875 55.79 35.6875H59.9683C60.268 35.6875 60.5264 35.8491 60.6592 36.1197C60.7919 36.3902 60.7624 36.6949 60.5802 36.9347L52.6065 47.4323C52.4823 47.5961 52.3296 47.5589 52.2498 47.5221C52.1696 47.4852 52.0416 47.393 52.0835 47.1911L53.7649 39.1245C53.8056 38.9288 53.7567 38.725 53.6314 38.5698C53.5063 38.4146 53.3183 38.3245 53.1197 38.3245H47.9061C47.6528 38.3245 47.4236 38.2049 47.277 37.9963C47.1306 37.7879 47.095 37.5304 47.1794 37.29L51.6239 24.627C51.687 24.4478 51.8559 24.3273 52.044 24.3273H60.8656C61.1029 24.3273 61.2174 24.4892 61.2557 24.5588C61.2939 24.6283 61.3691 24.8116 61.243 25.0138L59.66 27.557C59.4668 27.8676 59.5601 28.2771 59.8686 28.4718C60.1768 28.6664 60.5838 28.5725 60.7772 28.2618L62.36 25.7189C62.706 25.1636 62.7244 24.4898 62.4092 23.9164C62.0941 23.3425 61.517 23 60.8656 23H52.044C51.2987 23 50.6305 23.4756 50.3811 24.1841L45.9364 36.8476C45.7109 37.49 45.8097 38.2059 46.2006 38.7626C46.5918 39.3193 47.2293 39.6518 47.9062 39.6518H52.308L51.8293 41.9482C48.8589 40.7016 45.7376 40.0687 42.5387 40.0687C33.5354 40.0687 25.1441 45.1872 20.0922 53.7608C19.9687 53.9706 19.9693 54.2317 20.0939 54.4408C21.6689 57.0837 23.5811 59.4248 25.7775 61.3992C25.9033 61.5122 26.0601 61.5679 26.2163 61.5679C26.3976 61.5679 26.578 61.4931 26.7083 61.3462C26.9508 61.0728 26.9271 60.6532 26.6556 60.4091C24.6526 58.6086 22.896 56.4867 21.4298 54.0975C26.2609 46.1361 34.1247 41.396 42.5387 41.396C45.6453 41.396 48.6751 42.0273 51.5535 43.2713L50.7933 46.9187C50.6352 47.6782 51 48.4057 51.7008 48.7289C51.9254 48.8325 52.1584 48.8826 52.3871 48.8826C52.8719 48.8826 53.3363 48.6573 53.654 48.2385L55.6862 45.5629C58.7744 47.6864 61.486 50.5773 63.5702 53.9722C58.7394 61.9329 50.8756 66.6727 42.4613 66.6727C37.5522 66.6727 32.7777 65.07 28.6541 62.0379C28.36 61.8218 27.9478 61.8864 27.733 62.1824C27.5183 62.4784 27.5825 62.8936 27.8765 63.1098C32.2274 66.309 37.2707 68 42.4613 68C51.465 68 59.8563 62.8817 64.9078 54.3088C65.0313 54.099 65.0308 53.8379 64.9061 53.6287ZM42.5392 44.5883C47.7126 44.5883 51.9216 48.8258 51.9216 54.0345C51.9216 59.2433 47.7127 63.4808 42.5392 63.4808C37.3657 63.4808 33.1567 59.2433 33.1567 54.0345C33.1567 48.8258 37.3657 44.5883 42.5392 44.5883ZM42.5392 45.9156C38.0927 45.9156 34.4751 49.5577 34.4751 54.0345C34.4751 58.5114 38.0927 62.1535 42.5392 62.1535C46.9858 62.1535 50.6033 58.5114 50.6033 54.0345C50.6033 49.5577 46.9858 45.9156 42.5392 45.9156ZM47.6388 54.0345C47.6388 51.2035 45.3512 48.9003 42.5393 48.9003C39.7273 48.9003 37.4397 51.2035 37.4397 54.0345C37.4397 56.8656 39.7273 59.1688 42.5393 59.1688C45.3511 59.1688 47.6388 56.8657 47.6388 54.0345ZM38.758 54.0345C38.758 51.9354 40.4543 50.2276 42.5392 50.2276C44.6242 50.2276 46.3204 51.9354 46.3204 54.0345C46.3204 56.1337 44.6241 57.8415 42.5392 57.8415C40.4543 57.8415 38.758 56.1338 38.758 54.0345Z" fill="white"/>
</svg>
