<svg width="505" height="644" viewBox="0 0 505 644" fill="none" xmlns="http://www.w3.org/2000/svg">
<path d="M0 125C0 108.431 13.4315 95 30 95H485C496.046 95 505 103.954 505 115V480C505 491.046 496.046 500 485 500H20C8.9543 500 0 491.046 0 480V125Z" fill="#00909E"/>
<mask id="mask0" mask-type="alpha" maskUnits="userSpaceOnUse" x="0" y="95" width="505" height="405">
<path d="M0 125C0 108.431 13.4315 95 30 95H485C496.046 95 505 103.954 505 115V480C505 491.046 496.046 500 485 500H20C8.9543 500 0 491.046 0 480V125Z" fill="white"/>
</mask>
<g mask="url(#mask0)">
<path fill-rule="evenodd" clip-rule="evenodd" d="M484.5 528C511.286 528 533 506.286 533 479.5C533 452.714 511.286 431 484.5 431C457.714 431 436 452.714 436 479.5C436 506.286 457.714 528 484.5 528Z" fill="#AE91FF"/>
</g>
<path fill-rule="evenodd" clip-rule="evenodd" d="M58 341C58 346.12 56.0464 351.241 52.1392 355.139C44.3329 362.954 31.6671 362.954 23.8527 355.139C19.9536 351.241 18 346.12 18 341H58Z" fill="#FFD268"/>
<path fill-rule="evenodd" clip-rule="evenodd" d="M49 341C53.9706 341 58 336.971 58 332C58 327.029 53.9706 323 49 323C44.0294 323 40 327.029 40 332C40 336.971 44.0294 341 49 341Z" fill="#43D3B8"/>
<path fill-rule="evenodd" clip-rule="evenodd" d="M440 114H462V136H440V114ZM455.411 125V120.59L446.588 120.588V129.413L451.001 129.411V125H455.411Z" fill="#F88DAF"/>
<path d="M471 144V135L466.499 135.002V139.5H462V143.998L471 144Z" fill="#F88DAF"/>
<path opacity="0.517532" d="M456.608 217.016L464.49 216.912L464.869 209.039L472.75 208.935L473.131 201.061L481.013 200.956L481.394 193.081L489.277 192.975" stroke="white" stroke-width="1.2"/>
<path opacity="0.517532" d="M451.809 212.216L459.69 212.112L460.07 204.239L467.951 204.135L468.331 196.261L476.213 196.156L476.594 188.281L484.477 188.175" stroke="white" stroke-width="1.2"/>
<path fill-rule="evenodd" clip-rule="evenodd" d="M435.5 331L420 340V358L435.5 367L451 358V340L435.5 331Z" fill="#43D3B8"/>
<path opacity="0.517532" d="M413.4 362V362.353L413.709 362.524L422.709 367.524L423 367.686L423.291 367.524L432.291 362.524L432.6 362.353V362V352V351.647L432.291 351.475L423.291 346.476L423 346.314L422.709 346.476L413.709 351.475L413.4 351.647V352V362Z" stroke="white" stroke-width="1.2"/>
<path fill-rule="evenodd" clip-rule="evenodd" d="M176.337 128.864C176.688 129.215 176.688 129.785 176.337 130.136C175.985 130.488 175.415 130.488 175.064 130.136C174.712 129.785 174.712 129.215 175.064 128.864C175.415 128.512 175.985 128.512 176.337 128.864ZM172.736 125.264C173.088 125.615 173.088 126.185 172.736 126.537C172.385 126.888 171.815 126.888 171.464 126.537C171.112 126.185 171.112 125.615 171.464 125.264C171.815 124.912 172.385 124.912 172.736 125.264ZM179.937 125.264C180.288 125.615 180.288 126.185 179.937 126.537C179.585 126.888 179.015 126.888 178.663 126.537C178.312 126.185 178.312 125.615 178.663 125.264C179.015 124.912 179.585 124.912 179.937 125.264ZM182.936 121.664C183.288 122.015 183.288 122.585 182.936 122.936C182.585 123.288 182.015 123.288 181.664 122.936C181.312 122.585 181.312 122.015 181.664 121.664C182.015 121.312 182.585 121.312 182.936 121.664ZM176.337 121.664C176.688 122.015 176.688 122.585 176.337 122.937C175.985 123.288 175.415 123.288 175.063 122.937C174.712 122.585 174.712 122.015 175.063 121.664C175.415 121.312 175.985 121.312 176.337 121.664ZM169.737 121.664C170.088 122.015 170.088 122.585 169.737 122.937C169.385 123.288 168.816 123.288 168.464 122.937C168.112 122.585 168.112 122.015 168.464 121.664C168.816 121.312 169.385 121.312 169.737 121.664ZM186.537 118.664C186.888 119.015 186.888 119.585 186.537 119.936C186.185 120.288 185.615 120.288 185.264 119.936C184.912 119.585 184.912 119.015 185.264 118.664C185.615 118.312 186.185 118.312 186.537 118.664ZM172.736 118.664C173.088 119.015 173.088 119.585 172.736 119.937C172.385 120.288 171.815 120.288 171.464 119.937C171.112 119.585 171.112 119.015 171.464 118.664C171.815 118.312 172.385 118.312 172.736 118.664ZM179.936 118.664C180.288 119.015 180.288 119.585 179.936 119.936C179.585 120.288 179.015 120.288 178.663 119.936C178.312 119.585 178.312 119.015 178.663 118.664C179.015 118.312 179.585 118.312 179.936 118.664ZM166.136 118.064C166.488 118.415 166.488 118.985 166.136 119.337C165.785 119.688 165.215 119.688 164.864 119.337C164.512 118.985 164.512 118.415 164.864 118.064C165.215 117.712 165.785 117.712 166.136 118.064ZM182.937 115.064C183.288 115.415 183.288 115.985 182.937 116.337C182.585 116.688 182.015 116.688 181.664 116.337C181.312 115.985 181.312 115.415 181.664 115.064C182.015 114.712 182.585 114.712 182.937 115.064ZM176.336 115.063C176.688 115.415 176.688 115.985 176.336 116.336C175.985 116.688 175.415 116.688 175.064 116.336C174.712 115.985 174.712 115.415 175.064 115.063C175.415 114.712 175.985 114.712 176.336 115.063ZM169.136 115.063C169.488 115.415 169.488 115.985 169.136 116.336C168.785 116.688 168.215 116.688 167.863 116.336C167.512 115.985 167.512 115.415 167.863 115.063C168.215 114.712 168.785 114.712 169.136 115.063ZM189.536 115.064C189.888 115.415 189.888 115.985 189.536 116.336C189.185 116.688 188.615 116.688 188.264 116.336C187.912 115.985 187.912 115.415 188.264 115.064C188.615 114.712 189.185 114.712 189.536 115.064ZM162.537 115.064C162.888 115.415 162.888 115.985 162.537 116.336C162.185 116.688 161.615 116.688 161.263 116.336C160.912 115.985 160.912 115.415 161.263 115.064C161.615 114.712 162.185 114.712 162.537 115.064ZM186.537 112.064C186.888 112.415 186.888 112.985 186.537 113.337C186.185 113.688 185.615 113.688 185.263 113.337C184.912 112.985 184.912 112.415 185.263 112.064C185.615 111.712 186.185 111.712 186.537 112.064ZM172.737 111.463C173.088 111.815 173.088 112.385 172.737 112.736C172.385 113.088 171.815 113.088 171.463 112.736C171.112 112.385 171.112 111.815 171.463 111.463C171.815 111.112 172.385 111.112 172.737 111.463ZM166.136 111.464C166.488 111.815 166.488 112.385 166.136 112.736C165.785 113.088 165.215 113.088 164.864 112.736C164.512 112.385 164.512 111.815 164.864 111.464C165.215 111.112 165.785 111.112 166.136 111.464ZM179.336 111.464C179.688 111.815 179.688 112.385 179.336 112.737C178.985 113.088 178.415 113.088 178.064 112.737C177.712 112.385 177.712 111.815 178.064 111.464C178.415 111.112 178.985 111.112 179.336 111.464ZM182.937 108.464C183.288 108.815 183.288 109.385 182.937 109.736C182.585 110.088 182.015 110.088 181.663 109.736C181.312 109.385 181.312 108.815 181.663 108.464C182.015 108.112 182.585 108.112 182.937 108.464ZM176.337 108.464C176.688 108.815 176.688 109.385 176.337 109.736C175.985 110.088 175.415 110.088 175.063 109.736C174.712 109.385 174.712 108.815 175.063 108.464C175.415 108.112 175.985 108.112 176.337 108.464ZM169.136 107.864C169.488 108.215 169.488 108.785 169.136 109.137C168.785 109.488 168.215 109.488 167.864 109.137C167.512 108.785 167.512 108.215 167.864 107.864C168.215 107.512 168.785 107.512 169.136 107.864ZM179.336 104.864C179.688 105.215 179.688 105.785 179.336 106.136C178.985 106.488 178.415 106.488 178.064 106.136C177.712 105.785 177.712 105.215 178.064 104.864C178.415 104.512 178.985 104.512 179.336 104.864ZM172.736 104.864C173.088 105.215 173.088 105.785 172.736 106.136C172.385 106.488 171.815 106.488 171.464 106.136C171.112 105.785 171.112 105.215 171.464 104.864C171.815 104.512 172.385 104.512 172.736 104.864ZM176.336 101.263C176.688 101.615 176.688 102.185 176.336 102.536C175.985 102.888 175.415 102.888 175.063 102.536C174.712 102.185 174.712 101.615 175.063 101.263C175.415 100.912 175.985 100.912 176.336 101.263Z" fill="white"/>
<path opacity="0.495829" fill-rule="evenodd" clip-rule="evenodd" d="M37.2 183.4C37.8627 183.4 38.4 182.863 38.4 182.2C38.4 181.537 37.8627 181 37.2 181C36.5373 181 36 181.537 36 182.2C36 182.863 36.5373 183.4 37.2 183.4ZM44.4 183.4C45.0627 183.4 45.6 182.863 45.6 182.2C45.6 181.537 45.0627 181 44.4 181C43.7371 181 43.2 181.537 43.2 182.2C43.2 182.863 43.7371 183.4 44.4 183.4ZM53.4 182.2C53.4 182.863 52.8627 183.4 52.2 183.4C51.5373 183.4 51 182.863 51 182.2C51 181.537 51.5373 181 52.2 181C52.8627 181 53.4 181.537 53.4 182.2ZM59.4 183.4C60.0627 183.4 60.6 182.863 60.6 182.2C60.6 181.537 60.0627 181 59.4 181C58.7373 181 58.2 181.537 58.2 182.2C58.2 182.863 58.7373 183.4 59.4 183.4ZM68.4 182.2C68.4 182.863 67.8627 183.4 67.2 183.4C66.5373 183.4 66 182.863 66 182.2C66 181.537 66.5373 181 67.2 181C67.8627 181 68.4 181.537 68.4 182.2ZM74.4 183.4C75.0627 183.4 75.6 182.863 75.6 182.2C75.6 181.537 75.0627 181 74.4 181C73.7373 181 73.2 181.537 73.2 182.2C73.2 182.863 73.7373 183.4 74.4 183.4ZM82.8 182.2C82.8 182.863 82.2627 183.4 81.6 183.4C80.9371 183.4 80.4 182.863 80.4 182.2C80.4 181.537 80.9371 181 81.6 181C82.2627 181 82.8 181.537 82.8 182.2ZM89.4 183.4C90.0627 183.4 90.6 182.863 90.6 182.2C90.6 181.537 90.0627 181 89.4 181C88.7373 181 88.2 181.537 88.2 182.2C88.2 182.863 88.7373 183.4 89.4 183.4ZM97.8 182.2C97.8 182.863 97.2627 183.4 96.6 183.4C95.9371 183.4 95.4 182.863 95.4 182.2C95.4 181.537 95.9371 181 96.6 181C97.2627 181 97.8 181.537 97.8 182.2ZM40.7351 189.4C41.362 189.4 41.8702 188.863 41.8702 188.2C41.8702 187.537 41.362 187 40.7351 187C40.108 187 39.6 187.537 39.6 188.2C39.6 188.863 40.108 189.4 40.7351 189.4ZM48.2513 189.4C48.8782 189.4 49.3864 188.863 49.3864 188.2C49.3864 187.537 48.8782 187 48.2513 187C47.6245 187 47.1162 187.537 47.1162 188.2C47.1162 188.863 47.6245 189.4 48.2513 189.4ZM56.9026 188.2C56.9026 188.863 56.3943 189.4 55.7675 189.4C55.1406 189.4 54.6324 188.863 54.6324 188.2C54.6324 187.537 55.1406 187 55.7675 187C56.3943 187 56.9026 187.537 56.9026 188.2ZM63.2838 189.4C63.9106 189.4 64.4189 188.863 64.4189 188.2C64.4189 187.537 63.9106 187 63.2838 187C62.6569 187 62.1487 187.537 62.1487 188.2C62.1487 188.863 62.6569 189.4 63.2838 189.4ZM71.9351 188.2C71.9351 188.863 71.4268 189.4 70.7999 189.4C70.1731 189.4 69.6648 188.863 69.6648 188.2C69.6648 187.537 70.1731 187 70.7999 187C71.4268 187 71.9351 187.537 71.9351 188.2ZM78.3162 189.4C78.9431 189.4 79.4513 188.863 79.4513 188.2C79.4513 187.537 78.9431 187 78.3162 187C77.6891 187 77.1811 187.537 77.1811 188.2C77.1811 188.863 77.6891 189.4 78.3162 189.4ZM86.9675 188.2C86.9675 188.863 86.4593 189.4 85.8324 189.4C85.2056 189.4 84.6973 188.863 84.6973 188.2C84.6973 187.537 85.2056 187 85.8324 187C86.4593 187 86.9675 187.537 86.9675 188.2ZM93.3486 189.4C93.9754 189.4 94.4837 188.863 94.4837 188.2C94.4837 187.537 93.9754 187 93.3486 187C92.7217 187 92.2135 187.537 92.2135 188.2C92.2135 188.863 92.7217 189.4 93.3486 189.4ZM102 188.2C102 188.863 101.492 189.4 100.865 189.4C100.238 189.4 99.7298 188.863 99.7298 188.2C99.7298 187.537 100.238 187 100.865 187C101.492 187 102 187.537 102 188.2Z" fill="white"/>
<path opacity="0.536203" fill-rule="evenodd" clip-rule="evenodd" d="M455.4 278.2C455.4 288.804 446.804 297.4 436.2 297.4C425.596 297.4 417 288.804 417 278.2C417 267.596 425.596 259 436.2 259C446.804 259 455.4 267.596 455.4 278.2ZM449.4 278.2C449.4 285.49 443.49 291.4 436.2 291.4C428.91 291.4 423 285.49 423 278.2C423 270.91 428.91 265 436.2 265C443.49 265 449.4 270.91 449.4 278.2Z" fill="white"/>
<path fill-rule="evenodd" clip-rule="evenodd" d="M390 50L402 62.5L390 75L378 62.5L390 50Z" fill="#FFD268"/>
<path fill-rule="evenodd" clip-rule="evenodd" d="M385.8 9.6C388.451 9.6 390.6 7.45097 390.6 4.8C390.6 2.14903 388.451 0 385.8 0C383.149 0 381 2.14903 381 4.8C381 7.45097 383.149 9.6 385.8 9.6Z" fill="#8E65FF"/>
<path fill-rule="evenodd" clip-rule="evenodd" d="M437.099 46H458.699L447.899 30.4L437.099 46Z" fill="#3BD3E5"/>
<path fill-rule="evenodd" clip-rule="evenodd" d="M455.112 26.1247L455.805 25L455.971 25.2688L455.112 26.1247ZM457.467 27.6972L448.85 36.2839L448.154 37.4125L457.634 27.967L457.467 27.6972ZM449.501 39.9901L459.13 30.3955L459.297 30.6652L449.643 40.2837V40.2835L448.122 41.7999H447.685L449.501 39.9901H449.501ZM459.962 31.7441L450.518 41.1545L449.87 41.8H450.307L450.812 41.2968L460.128 32.0139L459.962 31.7441ZM451.925 41.7999L460.744 33.0125L460.91 33.2823L452.362 41.7999H451.925ZM461.575 34.3614L454.11 41.8H454.547L461.742 34.6312L461.575 34.3614ZM464.901 39.7577L462.852 41.8H463.289L465.068 40.0275L464.901 39.7577ZM458.481 41.7998L463.238 37.0597L463.405 37.3294L458.918 41.7998H458.481ZM465.037 41.7999H465.474L465.899 41.3767L465.733 41.1067L465.037 41.7999ZM460.666 41.7999L464.07 38.4086L464.236 38.6784L461.103 41.7999H460.666ZM462.407 35.7105L456.296 41.7998H456.732L462.573 35.9803L462.407 35.7105ZM448.551 39.1948L458.465 29.3161L458.299 29.0463L448.408 38.9014V38.9012L445.499 41.7998H445.936L448.55 39.1948H448.551ZM452.329 30.6398L456.636 26.3481L456.802 26.6178L451.633 31.7682L452.329 30.6398Z" fill="#0C0C0C"/>
<path d="M372.5 641H373.5V640V232C373.5 214.879 359.621 201 342.5 201H162.5C145.379 201 131.5 214.879 131.5 232V640V641H132.5H372.5Z" fill="#F4697F" stroke="black" stroke-width="2"/>
<mask id="mask1" mask-type="alpha" maskUnits="userSpaceOnUse" x="130" y="200" width="245" height="442">
<path d="M372.5 641H373.5V640V232C373.5 214.879 359.621 201 342.5 201H162.5C145.379 201 131.5 214.879 131.5 232V640V641H132.5H372.5Z" fill="white" stroke="white" stroke-width="2"/>
</mask>
<g mask="url(#mask1)">
<rect opacity="0.226888" x="147.5" y="216" width="100" height="100" rx="10" fill="white"/>
<rect opacity="0.226888" x="259.5" y="216" width="100" height="100" rx="10" fill="white"/>
<path fill-rule="evenodd" clip-rule="evenodd" d="M334.603 259.782L331.067 256.247L302.783 284.531L287.934 269.682L284.398 273.218L299.247 288.067L302.783 291.602L306.318 288.067L334.603 259.782Z" fill="white"/>
<rect opacity="0.226888" x="147.5" y="325" width="100" height="100" rx="10" fill="white"/>
<path fill-rule="evenodd" clip-rule="evenodd" d="M224.103 362.782L220.567 359.247L192.283 387.531L177.434 372.682L173.898 376.218L188.747 391.067L192.283 394.602L195.818 391.067L224.103 362.782Z" fill="white"/>
<rect opacity="0.226888" x="259" y="325" width="100" height="100" rx="10" fill="white"/>
<rect opacity="0.226888" x="147.5" y="433" width="100" height="100" rx="10" fill="white"/>
<rect opacity="0.226888" x="259.5" y="433" width="100" height="100" rx="10" fill="white"/>
<rect opacity="0.226888" x="147.5" y="544" width="100" height="100" rx="10" fill="white"/>
<rect opacity="0.226888" x="259" y="544" width="100" height="100" rx="10" fill="white"/>
</g>
<path fill-rule="evenodd" clip-rule="evenodd" d="M130 467H375V644H130V467Z" fill="url(#paint0_linear)"/>
<g clip-path="url(#clip0)">
<g filter="url(#filter0_d)">
<path fill-rule="evenodd" clip-rule="evenodd" d="M75.1385 487H272.862C274.595 487 276 488.515 276 490.385V549.615C276 551.485 274.595 553 272.862 553H75.1385C73.4051 553 72 551.485 72 549.615V490.385C72 488.515 73.4051 487 75.1385 487Z" fill="#8E65FF"/>
</g>
<path d="M122.865 516.305C124.155 516.305 125.225 516.625 126.075 517.265C126.925 517.895 127.47 518.75 127.71 519.83H125.49C125.28 519.35 124.945 518.97 124.485 518.69C124.035 518.4 123.5 518.255 122.88 518.255C122.27 518.255 121.73 518.395 121.26 518.675C120.79 518.955 120.425 519.355 120.165 519.875C119.905 520.395 119.775 521.005 119.775 521.705C119.775 522.815 120.07 523.68 120.66 524.3C121.26 524.92 122.075 525.23 123.105 525.23C123.865 525.23 124.515 525.005 125.055 524.555C125.605 524.105 125.96 523.48 126.12 522.68H122.535V521.165H127.89V523.205C127.74 523.905 127.445 524.55 127.005 525.14C126.575 525.73 126.005 526.205 125.295 526.565C124.595 526.915 123.79 527.09 122.88 527.09C121.84 527.09 120.92 526.865 120.12 526.415C119.33 525.955 118.715 525.32 118.275 524.51C117.845 523.69 117.63 522.755 117.63 521.705C117.63 520.655 117.845 519.725 118.275 518.915C118.715 518.095 119.33 517.455 120.12 516.995C120.91 516.535 121.825 516.305 122.865 516.305ZM137.289 522.53C137.289 522.74 137.264 522.98 137.214 523.25H131.124C131.154 523.99 131.354 524.535 131.724 524.885C132.094 525.235 132.554 525.41 133.104 525.41C133.594 525.41 133.999 525.29 134.319 525.05C134.649 524.81 134.859 524.485 134.949 524.075H137.184C137.074 524.655 136.839 525.175 136.479 525.635C136.119 526.095 135.654 526.455 135.084 526.715C134.524 526.975 133.899 527.105 133.209 527.105C132.399 527.105 131.679 526.935 131.049 526.595C130.419 526.245 129.929 525.75 129.579 525.11C129.229 524.47 129.054 523.715 129.054 522.845C129.054 521.975 129.229 521.22 129.579 520.58C129.929 519.93 130.419 519.435 131.049 519.095C131.679 518.755 132.399 518.585 133.209 518.585C134.029 518.585 134.744 518.755 135.354 519.095C135.974 519.435 136.449 519.905 136.779 520.505C137.119 521.095 137.289 521.77 137.289 522.53ZM135.159 522.32C135.189 521.64 135.009 521.125 134.619 520.775C134.239 520.425 133.769 520.25 133.209 520.25C132.639 520.25 132.159 520.425 131.769 520.775C131.379 521.125 131.164 521.64 131.124 522.32H135.159ZM143.23 525.185V527H142.12C141.19 527 140.475 526.775 139.975 526.325C139.485 525.875 139.24 525.125 139.24 524.075V520.475H138.085V518.69H139.24V516.635H141.355V518.69H143.215V520.475H141.355V524.105C141.355 524.505 141.435 524.785 141.595 524.945C141.755 525.105 142.025 525.185 142.405 525.185H143.23ZM154.589 516.41V518.09H150.134V520.925H153.704V522.545H150.134V527H148.019V516.41H154.589ZM158.132 520.28C158.442 519.75 158.852 519.335 159.362 519.035C159.872 518.725 160.442 518.57 161.072 518.57V520.835H160.457C158.907 520.835 158.132 521.555 158.132 522.995V527H156.017V518.69H158.132V520.28ZM170.057 522.53C170.057 522.74 170.032 522.98 169.982 523.25H163.892C163.922 523.99 164.122 524.535 164.492 524.885C164.862 525.235 165.322 525.41 165.872 525.41C166.362 525.41 166.767 525.29 167.087 525.05C167.417 524.81 167.627 524.485 167.717 524.075H169.952C169.842 524.655 169.607 525.175 169.247 525.635C168.887 526.095 168.422 526.455 167.852 526.715C167.292 526.975 166.667 527.105 165.977 527.105C165.167 527.105 164.447 526.935 163.817 526.595C163.187 526.245 162.697 525.75 162.347 525.11C161.997 524.47 161.822 523.715 161.822 522.845C161.822 521.975 161.997 521.22 162.347 520.58C162.697 519.93 163.187 519.435 163.817 519.095C164.447 518.755 165.167 518.585 165.977 518.585C166.797 518.585 167.512 518.755 168.122 519.095C168.742 519.435 169.217 519.905 169.547 520.505C169.887 521.095 170.057 521.77 170.057 522.53ZM167.927 522.32C167.957 521.64 167.777 521.125 167.387 520.775C167.007 520.425 166.537 520.25 165.977 520.25C165.407 520.25 164.927 520.425 164.537 520.775C164.147 521.125 163.932 521.64 163.892 522.32H167.927ZM179.374 522.53C179.374 522.74 179.349 522.98 179.299 523.25H173.209C173.239 523.99 173.439 524.535 173.809 524.885C174.179 525.235 174.639 525.41 175.189 525.41C175.679 525.41 176.084 525.29 176.404 525.05C176.734 524.81 176.944 524.485 177.034 524.075H179.269C179.159 524.655 178.924 525.175 178.564 525.635C178.204 526.095 177.739 526.455 177.169 526.715C176.609 526.975 175.984 527.105 175.294 527.105C174.484 527.105 173.764 526.935 173.134 526.595C172.504 526.245 172.014 525.75 171.664 525.11C171.314 524.47 171.139 523.715 171.139 522.845C171.139 521.975 171.314 521.22 171.664 520.58C172.014 519.93 172.504 519.435 173.134 519.095C173.764 518.755 174.484 518.585 175.294 518.585C176.114 518.585 176.829 518.755 177.439 519.095C178.059 519.435 178.534 519.905 178.864 520.505C179.204 521.095 179.374 521.77 179.374 522.53ZM177.244 522.32C177.274 521.64 177.094 521.125 176.704 520.775C176.324 520.425 175.854 520.25 175.294 520.25C174.724 520.25 174.244 520.425 173.854 520.775C173.464 521.125 173.249 521.64 173.209 522.32H177.244ZM185.627 516.41L188.462 524.795L191.312 516.41H193.577L189.827 527H187.112L183.362 516.41H185.627ZM194.478 516.305C194.478 515.965 194.598 515.69 194.838 515.48C195.078 515.26 195.393 515.15 195.783 515.15C196.173 515.15 196.488 515.26 196.728 515.48C196.968 515.69 197.088 515.965 197.088 516.305C197.088 516.635 196.968 516.91 196.728 517.13C196.488 517.34 196.173 517.445 195.783 517.445C195.393 517.445 195.078 517.34 194.838 517.13C194.598 516.91 194.478 516.635 194.478 516.305ZM196.833 518.69V527H194.718V518.69H196.833ZM206.561 522.53C206.561 522.74 206.536 522.98 206.486 523.25H200.396C200.426 523.99 200.626 524.535 200.996 524.885C201.366 525.235 201.826 525.41 202.376 525.41C202.866 525.41 203.271 525.29 203.591 525.05C203.921 524.81 204.131 524.485 204.221 524.075H206.456C206.346 524.655 206.111 525.175 205.751 525.635C205.391 526.095 204.926 526.455 204.356 526.715C203.796 526.975 203.171 527.105 202.481 527.105C201.671 527.105 200.951 526.935 200.321 526.595C199.691 526.245 199.201 525.75 198.851 525.11C198.501 524.47 198.326 523.715 198.326 522.845C198.326 521.975 198.501 521.22 198.851 520.58C199.201 519.93 199.691 519.435 200.321 519.095C200.951 518.755 201.671 518.585 202.481 518.585C203.301 518.585 204.016 518.755 204.626 519.095C205.246 519.435 205.721 519.905 206.051 520.505C206.391 521.095 206.561 521.77 206.561 522.53ZM204.431 522.32C204.461 521.64 204.281 521.125 203.891 520.775C203.511 520.425 203.041 520.25 202.481 520.25C201.911 520.25 201.431 520.425 201.041 520.775C200.651 521.125 200.436 521.64 200.396 522.32H204.431ZM219.958 518.69L217.723 527H215.383L213.598 520.955L211.768 527H209.428L207.208 518.69H209.323L210.673 525.11L212.518 518.69H214.753L216.613 525.11L217.978 518.69H219.958ZM223.877 518.585C224.887 518.585 225.697 518.84 226.307 519.35C226.917 519.86 227.297 520.54 227.447 521.39H225.467C225.387 520.99 225.207 520.67 224.927 520.43C224.647 520.19 224.282 520.07 223.832 520.07C223.472 520.07 223.192 520.155 222.992 520.325C222.792 520.495 222.692 520.725 222.692 521.015C222.692 521.245 222.772 521.43 222.932 521.57C223.092 521.71 223.292 521.82 223.532 521.9C223.772 521.98 224.117 522.075 224.567 522.185C225.197 522.325 225.707 522.475 226.097 522.635C226.497 522.785 226.837 523.03 227.117 523.37C227.407 523.7 227.552 524.15 227.552 524.72C227.552 525.43 227.272 526.005 226.712 526.445C226.162 526.885 225.417 527.105 224.477 527.105C223.397 527.105 222.532 526.865 221.882 526.385C221.232 525.895 220.837 525.2 220.697 524.3H222.722C222.772 524.71 222.952 525.035 223.262 525.275C223.572 525.505 223.977 525.62 224.477 525.62C224.837 525.62 225.112 525.535 225.302 525.365C225.492 525.185 225.587 524.955 225.587 524.675C225.587 524.435 225.502 524.24 225.332 524.09C225.172 523.94 224.967 523.825 224.717 523.745C224.477 523.665 224.132 523.57 223.682 523.46C223.062 523.32 222.557 523.18 222.167 523.04C221.787 522.89 221.457 522.655 221.177 522.335C220.907 522.015 220.772 521.575 220.772 521.015C220.772 520.295 221.047 519.71 221.597 519.26C222.147 518.81 222.907 518.585 223.877 518.585Z" fill="white"/>
</g>
<g clip-path="url(#clip1)">
<g filter="url(#filter1_d)">
<path fill-rule="evenodd" clip-rule="evenodd" d="M212.138 380H409.862C411.595 380 413 381.515 413 383.385V442.615C413 444.485 411.595 446 409.862 446H212.138C210.405 446 209 444.485 209 442.615V383.385C209 381.515 210.405 380 212.138 380Z" fill="white"/>
</g>
<path d="M292.075 411.09V413.835H295.825V415.455H292.075V418.305H296.275V420H289.96V409.41H296.275V411.09H292.075ZM308.416 411.57C309.426 411.57 310.221 411.885 310.801 412.515C311.391 413.135 311.686 414.02 311.686 415.17V420H309.586V415.41C309.586 414.77 309.421 414.28 309.091 413.94C308.771 413.59 308.326 413.415 307.756 413.415C307.166 413.415 306.696 413.6 306.346 413.97C305.996 414.34 305.821 414.88 305.821 415.59V420H303.721V415.41C303.721 414.77 303.556 414.28 303.226 413.94C302.906 413.59 302.461 413.415 301.891 413.415C301.301 413.415 300.831 413.6 300.481 413.97C300.131 414.34 299.956 414.88 299.956 415.59V420H297.841V411.69H299.956V413.265C300.176 412.725 300.521 412.31 300.991 412.02C301.471 411.72 302.026 411.57 302.656 411.57C303.326 411.57 303.906 411.73 304.396 412.05C304.896 412.37 305.271 412.83 305.521 413.43C305.781 412.86 306.166 412.41 306.676 412.08C307.196 411.74 307.776 411.57 308.416 411.57ZM316.799 411.585C317.499 411.585 318.099 411.75 318.599 412.08C319.099 412.41 319.454 412.855 319.664 413.415V411.69H321.764V420H319.664V418.26C319.454 418.82 319.099 419.27 318.599 419.61C318.099 419.94 317.499 420.105 316.799 420.105C316.099 420.105 315.469 419.935 314.909 419.595C314.349 419.255 313.909 418.765 313.589 418.125C313.279 417.475 313.124 416.715 313.124 415.845C313.124 414.975 313.279 414.22 313.589 413.58C313.909 412.93 314.349 412.435 314.909 412.095C315.469 411.755 316.099 411.585 316.799 411.585ZM317.459 413.43C316.799 413.43 316.269 413.645 315.869 414.075C315.469 414.505 315.269 415.095 315.269 415.845C315.269 416.595 315.469 417.185 315.869 417.615C316.269 418.035 316.799 418.245 317.459 418.245C318.099 418.245 318.624 418.03 319.034 417.6C319.454 417.16 319.664 416.575 319.664 415.845C319.664 415.105 319.454 414.52 319.034 414.09C318.624 413.65 318.099 413.43 317.459 413.43ZM323.441 409.305C323.441 408.965 323.561 408.69 323.801 408.48C324.041 408.26 324.356 408.15 324.746 408.15C325.136 408.15 325.451 408.26 325.691 408.48C325.931 408.69 326.051 408.965 326.051 409.305C326.051 409.635 325.931 409.91 325.691 410.13C325.451 410.34 325.136 410.445 324.746 410.445C324.356 410.445 324.041 410.34 323.801 410.13C323.561 409.91 323.441 409.635 323.441 409.305ZM325.796 411.69V420H323.681V411.69H325.796ZM329.824 408.9V420H327.709V408.9H329.824Z" fill="#42CFB4"/>
</g>
<g filter="url(#filter2_d)">
<path fill-rule="evenodd" clip-rule="evenodd" d="M146.6 255.2C175.098 255.2 198.2 232.098 198.2 203.6C198.2 175.102 175.098 152 146.6 152C118.102 152 95 175.102 95 203.6C95 232.098 118.102 255.2 146.6 255.2Z" fill="#FBB886"/>
</g>
<path fill-rule="evenodd" clip-rule="evenodd" d="M172.887 216.354C170.254 211.934 166.773 208.166 162.786 205.408L168.953 197.289C169.537 196.521 169.635 195.505 169.209 194.638C168.784 193.771 167.923 193.232 166.962 193.232H163.377L166.271 188.585C166.503 188.212 166.391 187.721 166.02 187.487C165.651 187.254 165.162 187.366 164.93 187.739L161.278 193.606C161.125 193.851 161.117 194.161 161.256 194.414C161.395 194.668 161.66 194.825 161.948 194.825H166.962C167.322 194.825 167.632 195.019 167.791 195.344C167.95 195.668 167.915 196.034 167.696 196.322L158.128 208.919C157.979 209.115 157.796 209.071 157.7 209.026C157.604 208.982 157.45 208.872 157.5 208.629L159.518 198.949C159.567 198.715 159.508 198.47 159.358 198.284C159.208 198.098 158.982 197.989 158.744 197.989H152.487C152.183 197.989 151.908 197.846 151.732 197.596C151.557 197.345 151.514 197.037 151.615 196.748L156.949 181.552C157.024 181.337 157.227 181.193 157.453 181.193H168.039C168.324 181.193 168.461 181.387 168.507 181.471C168.553 181.554 168.643 181.774 168.492 182.017L166.592 185.068C166.36 185.441 166.472 185.933 166.842 186.166C167.212 186.4 167.701 186.287 167.933 185.914L169.832 182.863C170.247 182.196 170.269 181.388 169.891 180.7C169.513 180.011 168.82 179.6 168.039 179.6H157.453C156.558 179.6 155.757 180.171 155.457 181.021L150.124 196.217C149.853 196.988 149.972 197.847 150.441 198.515C150.91 199.183 151.675 199.582 152.487 199.582H157.77L157.195 202.338C153.631 200.842 149.885 200.082 146.046 200.082C135.242 200.082 125.173 206.225 119.111 216.513C118.962 216.765 118.963 217.078 119.113 217.329C121.003 220.5 123.297 223.31 125.933 225.679C126.084 225.815 126.272 225.881 126.46 225.881C126.677 225.881 126.894 225.792 127.05 225.615C127.341 225.287 127.313 224.784 126.987 224.491C124.583 222.33 122.475 219.784 120.716 216.917C126.513 207.363 135.95 201.675 146.046 201.675C149.774 201.675 153.41 202.433 156.864 203.926L155.952 208.302C155.762 209.214 156.2 210.087 157.041 210.475C157.31 210.599 157.59 210.659 157.865 210.659C158.446 210.659 159.004 210.389 159.385 209.886L161.823 206.675C165.529 209.224 168.783 212.693 171.284 216.767C165.487 226.319 156.051 232.007 145.954 232.007C140.063 232.007 134.333 230.084 129.385 226.445C129.032 226.186 128.537 226.264 128.28 226.619C128.022 226.974 128.099 227.472 128.452 227.732C133.673 231.571 139.725 233.6 145.954 233.6C156.758 233.6 166.828 227.458 172.889 217.171C173.038 216.919 173.037 216.605 172.887 216.354ZM146.047 205.506C152.255 205.506 157.306 210.591 157.306 216.841C157.306 223.092 152.255 228.177 146.047 228.177C139.839 228.177 134.788 223.092 134.788 216.841C134.788 210.591 139.839 205.506 146.047 205.506ZM146.047 207.099C140.711 207.099 136.37 211.469 136.37 216.841C136.37 222.214 140.711 226.584 146.047 226.584C151.383 226.584 155.724 222.214 155.724 216.841C155.724 211.469 151.383 207.099 146.047 207.099ZM152.167 216.841C152.167 213.444 149.421 210.68 146.047 210.68C142.673 210.68 139.928 213.444 139.928 216.841C139.928 220.239 142.673 223.003 146.047 223.003C149.421 223.003 152.167 220.239 152.167 216.841ZM141.51 216.841C141.51 214.322 143.545 212.273 146.047 212.273C148.549 212.273 150.584 214.322 150.584 216.841C150.584 219.36 148.549 221.41 146.047 221.41C143.545 221.41 141.51 219.36 141.51 216.841Z" fill="white"/>
<defs>
<filter id="filter0_d" x="42" y="477" width="264" height="126" filterUnits="userSpaceOnUse" color-interpolation-filters="sRGB">
<feFlood flood-opacity="0" result="BackgroundImageFix"/>
<feColorMatrix in="SourceAlpha" type="matrix" values="0 0 0 0 0 0 0 0 0 0 0 0 0 0 0 0 0 0 127 0"/>
<feOffset dy="20"/>
<feGaussianBlur stdDeviation="15"/>
<feColorMatrix type="matrix" values="0 0 0 0 0.0993497 0 0 0 0 0.100716 0 0 0 0 0.189623 0 0 0 0.162232 0"/>
<feBlend mode="normal" in2="BackgroundImageFix" result="effect1_dropShadow"/>
<feBlend mode="normal" in="SourceGraphic" in2="effect1_dropShadow" result="shape"/>
</filter>
<filter id="filter1_d" x="179" y="370" width="264" height="126" filterUnits="userSpaceOnUse" color-interpolation-filters="sRGB">
<feFlood flood-opacity="0" result="BackgroundImageFix"/>
<feColorMatrix in="SourceAlpha" type="matrix" values="0 0 0 0 0 0 0 0 0 0 0 0 0 0 0 0 0 0 127 0"/>
<feOffset dy="20"/>
<feGaussianBlur stdDeviation="15"/>
<feColorMatrix type="matrix" values="0 0 0 0 0.0993497 0 0 0 0 0.100716 0 0 0 0 0.189623 0 0 0 0.162232 0"/>
<feBlend mode="normal" in2="BackgroundImageFix" result="effect1_dropShadow"/>
<feBlend mode="normal" in="SourceGraphic" in2="effect1_dropShadow" result="shape"/>
</filter>
<filter id="filter2_d" x="41" y="140" width="211.2" height="211.2" filterUnits="userSpaceOnUse" color-interpolation-filters="sRGB">
<feFlood flood-opacity="0" result="BackgroundImageFix"/>
<feColorMatrix in="SourceAlpha" type="matrix" values="0 0 0 0 0 0 0 0 0 0 0 0 0 0 0 0 0 0 127 0"/>
<feOffset dy="42"/>
<feGaussianBlur stdDeviation="27"/>
<feColorMatrix type="matrix" values="0 0 0 0 0 0 0 0 0 0 0 0 0 0 0 0 0 0 0.32 0"/>
<feBlend mode="normal" in2="BackgroundImageFix" result="effect1_dropShadow"/>
<feBlend mode="normal" in="SourceGraphic" in2="effect1_dropShadow" result="shape"/>
</filter>
<linearGradient id="paint0_linear" x1="189.632" y1="544.416" x2="189.632" y2="635.254" gradientUnits="userSpaceOnUse">
<stop stop-color="#F7F7FA" stop-opacity="0.01"/>
<stop offset="1" stop-color="#F7F7FA"/>
</linearGradient>
<clipPath id="clip0">
<rect width="204" height="66" fill="white" transform="translate(72 487)"/>
</clipPath>
<clipPath id="clip1">
<rect width="204" height="66" fill="white" transform="translate(209 380)"/>
</clipPath>
</defs>
</svg>
