<?xml version="1.0" encoding="UTF-8"?>
<svg width="210px" height="48px" viewBox="0 0 210 48" version="1.1" xmlns="http://www.w3.org/2000/svg" xmlns:xlink="http://www.w3.org/1999/xlink">
    <title>Logo</title>
    <g id="Page-1" stroke="none" stroke-width="1" fill="none" fill-rule="evenodd">
        <g id="Home" transform="translate(-30.000000, -16.000000)">
            <g id="Group-4">
                <g id="Logo" transform="translate(30.000000, 16.000000)">
                    <path d="M8.976,35.018 C16.048,35.018 20.978,30.53 20.978,23.662 C20.978,16.862 16.048,12.34 8.942,12.34 L-1.42108547e-14,12.34 L-1.42108547e-14,35.018 L8.976,35.018 Z M8.942,30.768 L4.828,30.768 L4.828,16.59 L8.976,16.59 C13.6,16.59 16.048,19.684 16.048,23.662 C16.048,27.538 13.43,30.768 8.942,30.768 Z M27.506,35.018 L28.934,31.176 L38.658,31.176 L40.086,35.018 L45.56,35.018 L36.822,12.34 L30.77,12.34 L22.032,35.018 L27.506,35.018 Z M37.332,26.926 L30.26,26.926 L33.796,17.168 L37.332,26.926 Z M55.76,35.426 C61.846,35.426 64.838,32.298 64.838,28.15 C64.838,19.684 51.816,22.098 51.816,18.528 C51.816,17.168 52.972,16.284 55.012,16.284 C57.324,16.284 59.772,17.066 61.608,18.766 L64.294,15.162 C62.05,13.088 59.058,12 55.454,12 C50.116,12 46.852,15.128 46.852,18.902 C46.852,27.436 59.908,24.682 59.908,28.626 C59.908,29.952 58.65,31.142 55.964,31.142 C52.836,31.142 50.354,29.714 48.756,28.048 L46.104,31.822 C48.246,33.964 51.374,35.426 55.76,35.426 Z M72.896,35.018 L72.896,25.464 L83.606,25.464 L83.606,35.018 L88.468,35.018 L88.468,12.34 L83.606,12.34 L83.606,21.248 L72.896,21.248 L72.896,12.34 L68.068,12.34 L68.068,35.018 L72.896,35.018 Z M138.334,35.018 L138.334,30.768 L128.746,30.768 L128.746,12.34 L123.884,12.34 L123.884,35.018 L138.334,35.018 Z M146.426,35.018 L146.426,12.34 L141.598,12.34 L141.598,35.018 L146.426,35.018 Z M155.742,35.018 L155.742,28.048 L157.51,25.906 L164.378,35.018 L170.328,35.018 L160.706,22.982 L169.716,12.34 L163.766,12.34 L155.742,22.438 L155.742,12.34 L150.914,12.34 L150.914,35.018 L155.742,35.018 Z M188.586,35.018 L188.586,30.768 L177.366,30.768 L177.366,25.6 L188.348,25.6 L188.348,21.35 L177.366,21.35 L177.366,16.59 L188.586,16.59 L188.586,12.34 L172.538,12.34 L172.538,35.018 L188.586,35.018 Z M200.452,35.426 C206.538,35.426 209.53,32.298 209.53,28.15 C209.53,19.684 196.508,22.098 196.508,18.528 C196.508,17.168 197.664,16.284 199.704,16.284 C202.016,16.284 204.464,17.066 206.3,18.766 L208.986,15.162 C206.742,13.088 203.75,12 200.146,12 C194.808,12 191.544,15.128 191.544,18.902 C191.544,27.436 204.6,24.682 204.6,28.626 C204.6,29.952 203.342,31.142 200.656,31.142 C197.528,31.142 195.046,29.714 193.448,28.048 L190.796,31.822 C192.938,33.964 196.066,35.426 200.452,35.426 Z" id="DASHLIKES" fill="#FFFFFF" fill-rule="nonzero"></path>
                    <polygon id="Path-3" fill="#FFD268" points="112.675676 0 109.144144 20.0634921 121 20.0634921 101.072072 48 104.855856 28.1904762 93 28.1904762"></polygon>
                </g>
            </g>
        </g>
    </g>
</svg>