<svg width="96" height="16" viewBox="0 0 96 16" fill="none" xmlns="http://www.w3.org/2000/svg">
<path fill-rule="evenodd" clip-rule="evenodd" d="M8.00015 0L5.52799 5.26681L0 6.11161L3.99978 10.2107L3.05582 16L8.00015 13.267L12.9442 16L11.9999 10.2107L16 6.11161L10.4717 5.26681L8.00015 0ZM27.5812 0L25.109 5.26681L19.581 6.11161L23.5808 10.2107L22.6369 16L27.5812 13.267L32.5252 16L31.581 10.2107L35.581 6.11161L30.0527 5.26681L27.5812 0ZM45.109 5.26681L47.5812 0L50.0527 5.26681L55.581 6.11161L51.581 10.2107L52.5252 16L47.5812 13.267L42.6369 16L43.5808 10.2107L39.581 6.11161L45.109 5.26681ZM67.5812 0L65.109 5.26681L59.581 6.11161L63.5808 10.2107L62.6369 16L67.5812 13.267L72.5252 16L71.581 10.2107L75.581 6.11161L70.0527 5.26681L67.5812 0ZM85.109 5.26681L87.5812 0L90.0527 5.26681L95.581 6.11161L91.581 10.2107L92.5252 16L87.5812 13.267L82.6369 16L83.5808 10.2107L79.581 6.11161L85.109 5.26681Z" fill="#FF9C4B"/>
</svg>
