<svg width="104" height="104" viewBox="0 0 104 104" fill="none" xmlns="http://www.w3.org/2000/svg">
<path fill-rule="evenodd" clip-rule="evenodd" d="M51.6 103.2C80.0979 103.2 103.2 80.0979 103.2 51.6C103.2 23.1021 80.0979 0 51.6 0C23.1021 0 0 23.1021 0 51.6C0 80.0979 23.1021 103.2 51.6 103.2Z" fill="#F4697F"/>
<path fill-rule="evenodd" clip-rule="evenodd" d="M51.881 48.1331C45.7101 54.304 45.7101 64.3633 51.881 70.5342C58.0519 76.7051 68.1112 76.7051 74.2821 70.5342C80.453 64.3633 80.453 54.304 74.2821 48.1331C68.1112 41.9622 58.0519 41.9622 51.881 48.1331ZM53.6043 49.8564C58.8277 44.633 67.3354 44.633 72.5588 49.8564C77.7822 55.0799 77.7822 63.5875 72.5588 68.8109C67.3354 74.0343 58.8277 74.0343 53.6043 68.8109C48.3809 63.5875 48.3809 55.0799 53.6043 49.8564ZM61.7976 64.4894L61.8082 64.5L60.0848 66.2234L60.0743 66.2128L60.0563 66.2308L58.3329 64.5075L58.3509 64.4894L53.9378 60.0763L55.6611 58.3529L60.0743 62.7661L69.4947 53.3457L71.2181 55.069L61.7976 64.4894Z" fill="white"/>
<path d="M49.6402 75.96L27.5108 53.8112C24.6044 50.844 23 46.9232 23 42.7749C23 34.0853 30.0686 27 38.7722 27C42.6772 27 46.5826 28.6956 49.6402 31.6783C52.6978 28.6956 56.6028 27 60.5078 27C69.2114 27 76.28 34.0853 76.28 42.7749C76.28 45.0458 75.8108 47.2412 74.8574 49.3001L72.6623 48.3008C73.4495 46.56 73.8583 44.6976 73.8583 42.7749C73.8583 35.4172 67.8793 29.4225 60.5078 29.4225C56.8906 29.4225 53.2579 31.1785 50.5333 34.2366L49.6251 35.2509L48.717 34.2366C45.9924 31.1785 42.3597 29.4225 38.742 29.4225C31.4007 29.4225 25.4217 35.4172 25.4217 42.7749C25.4217 46.2872 26.784 49.6026 29.2362 52.1005L49.6402 72.5231L53.0911 69.0565L54.8015 70.7672L49.6402 75.96Z" fill="white"/>
</svg>
