<svg width="104" height="104" viewBox="0 0 104 104" fill="none" xmlns="http://www.w3.org/2000/svg">
<path fill-rule="evenodd" clip-rule="evenodd" d="M51.6 103.2C80.0979 103.2 103.2 80.0979 103.2 51.6C103.2 23.1021 80.0979 0 51.6 0C23.1021 0 0 23.1021 0 51.6C0 80.0979 23.1021 103.2 51.6 103.2Z" fill="#00909E"/>
<path fill-rule="evenodd" clip-rule="evenodd" d="M77.8873 64.3545C75.2538 59.9342 71.7731 56.1659 67.786 53.4083L73.9529 45.2892C74.5365 44.5208 74.6347 43.505 74.2092 42.638C73.7837 41.7709 72.9225 41.2322 71.9619 41.2322H68.3773L71.2706 36.5847C71.5026 36.212 71.3907 35.7206 71.0205 35.487C70.6505 35.2536 70.1623 35.3661 69.9302 35.7389L66.2778 41.6057C66.125 41.8512 66.1166 42.1608 66.2558 42.4143C66.3952 42.6677 66.6602 42.825 66.948 42.825H71.962C72.3217 42.825 72.6316 43.0189 72.791 43.3436C72.9503 43.6682 72.9149 44.0338 72.6963 44.3216L63.1279 56.9188C62.9787 57.1153 62.7955 57.0706 62.6998 57.0265C62.6036 56.9822 62.4499 56.8716 62.5002 56.6293L64.5178 46.9494C64.5668 46.7146 64.508 46.4701 64.3577 46.2838C64.2075 46.0976 63.9819 45.9895 63.7437 45.9895H57.4873C57.1833 45.9895 56.9083 45.8459 56.7325 45.5956C56.5567 45.3454 56.514 45.0365 56.6153 44.748L61.9487 29.5523C62.0244 29.3373 62.2271 29.1928 62.4529 29.1928H73.0387C73.3235 29.1928 73.4609 29.387 73.5068 29.4706C73.5527 29.5539 73.6429 29.774 73.4916 30.0166L71.592 33.0684C71.3601 33.4411 71.4721 33.9325 71.8423 34.1661C72.2122 34.3996 72.7006 34.287 72.9326 33.9142L74.832 30.8627C75.2472 30.1964 75.2693 29.3878 74.8911 28.6997C74.5129 28.011 73.8204 27.6 73.0387 27.6H62.4529C61.5585 27.6 60.7566 28.1708 60.4573 29.0209L55.1237 44.2171C54.8531 44.988 54.9717 45.8471 55.4408 46.5151C55.9101 47.1832 56.6752 47.5821 57.4874 47.5821H62.7696L62.1952 50.3378C58.6307 48.8419 54.8852 48.0824 51.0464 48.0824C40.2424 48.0824 30.1729 54.2246 24.1107 64.5129C23.9624 64.7647 23.9631 65.078 24.1127 65.329C26.0027 68.5004 28.2974 71.3098 30.933 73.679C31.084 73.8146 31.2721 73.8814 31.4595 73.8814C31.6771 73.8814 31.8936 73.7917 32.0499 73.6154C32.3409 73.2873 32.3126 72.7839 31.9867 72.4909C29.5831 70.3303 27.4752 67.7841 25.7157 64.917C31.5131 55.3634 40.9496 49.6752 51.0464 49.6752C54.7743 49.6752 58.4101 50.4327 61.8642 51.9256L60.9519 56.3025C60.7622 57.2139 61.2 58.0868 62.041 58.4747C62.3105 58.599 62.5901 58.6591 62.8645 58.6591C63.4463 58.6591 64.0036 58.3887 64.3848 57.8861L66.8235 54.6755C70.5293 57.2237 73.7832 60.6928 76.2842 64.7666C70.4872 74.3194 61.0508 80.0072 50.9536 80.0072C45.0627 80.0072 39.3332 78.084 34.3849 74.4455C34.032 74.1862 33.5374 74.2637 33.2796 74.6189C33.0219 74.9741 33.099 75.4723 33.4518 75.7317C38.6728 79.5708 44.7248 81.6 50.9536 81.6C61.758 81.6 71.8275 75.4581 77.8894 65.1705C78.0375 64.9188 78.0369 64.6055 77.8873 64.3545ZM51.0471 53.506C57.2552 53.506 62.3059 58.591 62.3059 64.8415C62.3059 71.0919 57.2553 76.177 51.0471 76.177C44.8389 76.177 39.7881 71.0919 39.7881 64.8415C39.7881 58.591 44.8389 53.506 51.0471 53.506ZM51.0471 55.0988C45.7112 55.0988 41.3701 59.4693 41.3701 64.8415C41.3701 70.2136 45.7112 74.5842 51.0471 74.5842C56.3829 74.5842 60.7239 70.2136 60.7239 64.8415C60.7239 59.4693 56.3829 55.0988 51.0471 55.0988ZM57.1666 64.8415C57.1666 61.4442 54.4214 58.6803 51.0472 58.6803C47.6728 58.6803 44.9277 61.4442 44.9277 64.8415C44.9277 68.2387 47.6728 71.0026 51.0472 71.0026C54.4213 71.0026 57.1666 68.2388 57.1666 64.8415ZM46.5096 64.8415C46.5096 62.3225 48.5451 60.2731 51.0471 60.2731C53.549 60.2731 55.5844 62.3225 55.5844 64.8415C55.5844 67.3604 53.5489 69.4098 51.0471 69.4098C48.5451 69.4098 46.5096 67.3605 46.5096 64.8415Z" fill="white"/>
</svg>
