<svg width="95" height="95" viewBox="0 0 95 95" fill="none" xmlns="http://www.w3.org/2000/svg">
<path fill-rule="evenodd" clip-rule="evenodd" d="M47.3 94.6C73.4231 94.6 94.6 73.4231 94.6 47.3C94.6 21.1769 73.4231 0 47.3 0C21.1769 0 0 21.1769 0 47.3C0 73.4231 21.1769 94.6 47.3 94.6Z" fill="#43D3B8"/>
<path fill-rule="evenodd" clip-rule="evenodd" d="M71.7909 24.2H23.9087C21.643 24.2 19.7998 26.0722 19.7998 28.3735V60.6488C19.7998 62.9502 21.643 64.8223 23.9087 64.8223H42.5083L47.1924 71.1661C47.3476 71.3764 47.5911 71.5 47.8498 71.5C48.1085 71.5 48.352 71.3764 48.5072 71.1661L53.1914 64.8223H71.7909C74.0566 64.8223 75.8998 62.9502 75.8998 60.6488V28.3735C75.8998 26.0722 74.0566 24.2 71.7909 24.2ZM74.2563 60.6488C74.2563 62.0296 73.1504 63.1529 71.7909 63.1529H52.7805C52.5218 63.1529 52.2783 63.2766 52.123 63.4868L47.8498 69.2741L43.5766 63.4868C43.4213 63.2766 43.1778 63.1529 42.9191 63.1529H23.9087C22.5493 63.1529 21.4434 62.0296 21.4434 60.6488V28.3735C21.4434 26.9927 22.5493 25.8694 23.9087 25.8694H71.7909C73.1504 25.8694 74.2563 26.9927 74.2563 28.3735V60.6488ZM38.8103 38.39C38.8103 33.3271 42.8653 29.2082 47.8498 29.2082C52.8343 29.2082 56.8894 33.3271 56.8894 38.39V41.7288C56.8894 46.7917 52.8343 50.9106 47.8498 50.9106C42.8653 50.9106 38.8103 46.7917 38.8103 41.7288V38.39ZM47.8498 49.2412C51.928 49.2412 55.2458 45.8712 55.2458 41.7288V38.39C55.2458 34.2476 51.928 30.8776 47.8498 30.8776C43.7716 30.8776 40.4538 34.2476 40.4538 38.39V41.7288C40.4538 45.8712 43.7716 49.2412 47.8498 49.2412ZM49.2667 41.4905C49.3962 41.0487 49.8536 40.7968 50.2888 40.9288C50.7238 41.0605 50.9714 41.5253 50.8418 41.9671C50.4506 43.3012 49.2202 44.2329 47.8498 44.2329C46.4794 44.2329 45.249 43.3012 44.8578 41.9671C44.7283 41.5253 44.9758 41.0605 45.4108 40.9288C45.8463 40.7975 46.3034 41.0488 46.433 41.4905C46.6182 42.1224 47.2008 42.5635 47.8498 42.5635C48.4988 42.5635 49.0815 42.1224 49.2667 41.4905ZM32.7839 57.8665C32.7839 54.9516 35.1187 52.58 37.9885 52.58H57.7111C60.5809 52.58 62.9157 54.9516 62.9157 57.8665V58.9794C62.9157 59.4404 62.5478 59.8141 62.0939 59.8141H41.2756C40.8217 59.8141 40.4538 59.4404 40.4538 58.9794C40.4538 58.5184 40.8217 58.1447 41.2756 58.1447H61.2722V57.8665C61.2722 55.8721 59.6746 54.2494 57.7111 54.2494H37.9885C36.025 54.2494 34.4274 55.8721 34.4274 57.8665V58.1447H37.9885C38.4423 58.1447 38.8103 58.5184 38.8103 58.9794C38.8103 59.4404 38.4423 59.8141 37.9885 59.8141H33.6057C33.1518 59.8141 32.7839 59.4404 32.7839 58.9794V57.8665Z" fill="white"/>
</svg>
