<svg width="105" height="105" viewBox="0 0 105 105" fill="none" xmlns="http://www.w3.org/2000/svg">
<path fill-rule="evenodd" clip-rule="evenodd" d="M52.03 104.06C80.7654 104.06 104.06 80.7654 104.06 52.03C104.06 23.2946 80.7654 0 52.03 0C23.2946 0 0 23.2946 0 52.03C0 80.7654 23.2946 104.06 52.03 104.06Z" fill="#FBB886"/>
<path fill-rule="evenodd" clip-rule="evenodd" d="M78.8873 51.2721C76.2538 46.8518 72.7731 43.0835 68.786 40.3259C68.786 40.3259 67.0958 38.5618 67 38.5176C66.9038 38.4733 63.1952 37.2554 63.1952 37.2554C59.6307 35.7596 55.8852 35 52.0464 35C41.2424 35 31.1729 41.1422 25.1107 51.4305C24.9624 51.6823 24.9631 51.9957 25.1127 52.2466C27.0027 55.418 29.2974 58.2274 31.933 60.5966C32.084 60.7322 32.2721 60.799 32.4595 60.799C32.6771 60.799 32.8936 60.7093 33.0499 60.533C33.3409 60.2049 33.3126 59.7015 32.9867 59.4085C30.5831 57.2479 28.4752 54.7017 26.7157 51.8346C32.5131 42.281 41.9496 36.5928 52.0464 36.5928C55.7743 36.5928 59.4101 37.3503 62.8642 38.8432L61.9519 43.2201C61.7622 44.1315 62.2 45.0045 63.041 45.3924C63.3105 45.5166 63.5901 45.5767 63.8645 45.5767C64.4463 45.5767 65.0036 45.3063 65.3848 44.8038L67.8235 41.5931C71.5293 44.1413 74.7832 47.6104 77.2842 51.6842C71.4872 61.2371 62.0508 66.9248 51.9536 66.9248C46.0627 66.9248 40.3332 65.0016 35.3849 61.3631C35.032 61.1038 34.5374 61.1813 34.2796 61.5365C34.0219 61.8917 34.099 62.3899 34.4518 62.6493C39.6728 66.4884 45.7248 68.5176 51.9536 68.5176C62.758 68.5176 72.8275 62.3757 78.8894 52.0881C79.0375 51.8364 79.0369 51.5231 78.8873 51.2721ZM52.0471 40.4236C58.2552 40.4236 63.3059 45.5086 63.3059 51.7591C63.3059 58.0095 58.2553 63.0946 52.0471 63.0946C45.8389 63.0946 40.7881 58.0095 40.7881 51.7591C40.7881 45.5086 45.8389 40.4236 52.0471 40.4236ZM52.0471 42.0164C46.7112 42.0164 42.3701 46.3869 42.3701 51.7591C42.3701 57.1313 46.7112 61.5018 52.0471 61.5018C57.3829 61.5018 61.7239 57.1313 61.7239 51.7591C61.7239 46.3869 57.3829 42.0164 52.0471 42.0164ZM58.1666 51.7591C58.1666 48.3619 55.4214 45.5979 52.0472 45.5979C48.6728 45.5979 45.9277 48.3619 45.9277 51.7591C45.9277 55.1563 48.6728 57.9202 52.0472 57.9202C55.4213 57.9202 58.1666 55.1564 58.1666 51.7591ZM47.5096 51.7591C47.5096 49.2401 49.5451 47.1907 52.0471 47.1907C54.549 47.1907 56.5844 49.2401 56.5844 51.7591C56.5844 54.278 54.5489 56.3274 52.0471 56.3274C49.5451 56.3274 47.5096 54.2781 47.5096 51.7591Z" fill="white"/>
</svg>
