<svg width="95" height="95" viewBox="0 0 95 95" fill="none" xmlns="http://www.w3.org/2000/svg">
<path fill-rule="evenodd" clip-rule="evenodd" d="M47.3 94.6C73.4231 94.6 94.6 73.4231 94.6 47.3C94.6 21.1769 73.4231 0 47.3 0C21.1769 0 0 21.1769 0 47.3C0 73.4231 21.1769 94.6 47.3 94.6Z" fill="#43D3B8"/>
<path fill-rule="evenodd" clip-rule="evenodd" d="M68.6548 29.6222C65.9904 26.8351 62.4264 25.3001 58.6192 25.3001C54.8706 25.3001 51.3461 26.7934 48.6948 29.5054L47.3264 30.906L45.9567 29.505C43.3056 26.7933 39.7817 25.3 36.0343 25.3C32.2856 25.3 28.7612 26.7933 26.1103 29.505C23.4597 32.2161 22 35.8207 22 39.6549C22 43.4892 23.4597 47.0938 26.1103 49.8048L43.6505 67.7456C44.6638 68.7818 45.9944 69.3 47.3253 69.3C48.6559 69.2999 49.9868 68.7818 50.9998 67.7457L68.4271 49.922C73.9007 44.3232 74.0029 35.2169 68.6548 29.6222ZM66.5896 48.0426L49.1624 65.8665C48.1493 66.9026 46.5009 66.9026 45.4879 65.8664L27.9476 47.9254C25.7878 45.7163 24.5984 42.7792 24.5984 39.6548C24.5984 36.5305 25.7878 33.5933 27.9476 31.3842C30.1078 29.1746 32.9797 27.9577 36.0343 27.9577C39.0877 27.9577 41.959 29.1746 44.1193 31.3842L45.4897 32.7859L43.3912 34.9338C42.8841 35.453 42.8845 36.2944 43.3919 36.8131C43.6456 37.0724 43.9779 37.202 44.3102 37.202C44.643 37.202 44.9756 37.072 45.2293 36.8124L50.5322 31.3841C52.6925 29.1745 55.5643 27.9576 58.6189 27.9576C61.721 27.9576 64.6252 29.2087 66.7966 31.4802C71.1545 36.0388 71.0615 43.4686 66.5896 48.0426ZM65.3261 32.7937C66.9609 34.4659 67.9398 36.6884 68.0826 39.0518C68.1268 39.7843 67.5823 40.4148 66.8662 40.4598C66.8389 40.4616 66.8117 40.4624 66.7849 40.4624C66.1038 40.4624 65.5319 39.9201 65.4893 39.2154C65.3856 37.4995 64.6753 35.8863 63.4889 34.6728C62.6474 33.8121 61.6058 33.1873 60.4765 32.8659C59.7852 32.6692 59.3806 31.9366 59.573 31.2296C59.7653 30.5225 60.4815 30.1087 61.1728 30.3054C62.7324 30.7495 64.1687 31.6097 65.3261 32.7937Z" fill="white"/>
</svg>
